<svg width="12" height="4" viewBox="0 0 12 4" fill="none" xmlns="http://www.w3.org/2000/svg">
<path d="M1 1.75C0.861929 1.75 0.75 1.86193 0.75 2C0.75 2.13807 0.861929 2.25 1 2.25L1 1.75ZM11.1768 2.17678C11.2744 2.07915 11.2744 1.92085 11.1768 1.82322L9.58579 0.232233C9.48816 0.134602 9.32986 0.134602 9.23223 0.232233C9.1346 0.329864 9.1346 0.488155 9.23223 0.585786L10.6464 2L9.23223 3.41421C9.1346 3.51184 9.1346 3.67014 9.23223 3.76777C9.32986 3.8654 9.48816 3.8654 9.58579 3.76777L11.1768 2.17678ZM1 2.25L11 2.25V1.75L1 1.75L1 2.25Z" fill="black"/>
</svg>
 