<svg width="23" height="19" viewBox="0 0 23 19" fill="none" xmlns="http://www.w3.org/2000/svg">
<path d="M6.5625 12.625C7.07031 12.625 7.5 13.0547 7.5 13.5625C7.5 14.1094 7.07031 14.5 6.5625 14.5H4.6875C4.14062 14.5 3.75 14.1094 3.75 13.5625C3.75 13.0547 4.14062 12.625 4.6875 12.625H6.5625ZM14.0625 12.625C14.5703 12.625 15 13.0547 15 13.5625C15 14.1094 14.5703 14.5 14.0625 14.5H9.6875C9.14062 14.5 8.75 14.1094 8.75 13.5625C8.75 13.0547 9.14062 12.625 9.6875 12.625H14.0625ZM20 0.75C21.3672 0.75 22.5 1.88281 22.5 3.25V15.75C22.5 17.1562 21.3672 18.25 20 18.25H2.5C1.09375 18.25 0 17.1562 0 15.75V3.25C0 1.88281 1.09375 0.75 2.5 0.75H20ZM20 2.625H2.5C2.14844 2.625 1.875 2.9375 1.875 3.25V4.5H20.625V3.25C20.625 2.9375 20.3125 2.625 20 2.625ZM20.625 8.25H1.875V15.75C1.875 16.1016 2.14844 16.375 2.5 16.375H20C20.3125 16.375 20.625 16.1016 20.625 15.75V8.25Z" fill="#1C1C1C"/>
</svg>
