<svg width="22" height="22" viewBox="0 0 22 22" fill="none" xmlns="http://www.w3.org/2000/svg">
<path d="M21.3125 10.75C21.3125 16.6367 16.543 21.4062 10.6562 21.4062C9.53906 21.4062 8.46484 21.2773 7.47656 20.9336C7.90625 20.2461 8.55078 19.0859 8.80859 18.1406C8.9375 17.668 9.45312 15.6055 9.45312 15.6055C9.79688 16.293 10.8281 16.8516 11.9023 16.8516C15.125 16.8516 17.4453 13.8867 17.4453 10.2344C17.4453 6.71094 14.5664 4.04688 10.8711 4.04688C6.27344 4.04688 3.82422 7.14062 3.82422 10.4922C3.82422 12.082 4.64062 14.0156 5.97266 14.6602C6.1875 14.7461 6.31641 14.7031 6.35938 14.4883C6.35938 14.3594 6.57422 13.6289 6.66016 13.2852C6.66016 13.1992 6.66016 13.0703 6.57422 12.9844C6.14453 12.4688 5.80078 11.4805 5.80078 10.5352C5.80078 8.21484 7.5625 5.9375 10.6133 5.9375C13.1914 5.9375 15.0391 7.69922 15.0391 10.2773C15.0391 13.1562 13.5781 15.1328 11.6875 15.1328C10.6562 15.1328 9.88281 14.2734 10.0977 13.2422C10.3984 11.9531 11 10.5781 11 9.67578C11 8.85938 10.5703 8.17188 9.66797 8.17188C8.59375 8.17188 7.73438 9.28906 7.73438 10.75C7.73438 11.6953 8.03516 12.3398 8.03516 12.3398C8.03516 12.3398 7.00391 16.8086 6.78906 17.625C6.57422 18.5703 6.66016 19.8594 6.74609 20.6758C2.79297 19.1289 0 15.3047 0 10.75C0 4.86328 4.76953 0.09375 10.6562 0.09375C16.543 0.09375 21.3125 4.86328 21.3125 10.75Z" fill="white"/>
</svg>
