<svg width="19" height="19" viewBox="0 0 19 19" fill="none" xmlns="http://www.w3.org/2000/svg">
<path d="M18.75 9.5C18.75 14.3438 14.8047 18.25 10 18.25C8.08594 18.25 6.25 17.6641 4.72656 16.5312C4.17969 16.1016 4.0625 15.3203 4.49219 14.7734C4.92188 14.2266 5.70312 14.1094 6.25 14.5C7.34375 15.3203 8.63281 15.75 10 15.75C13.4375 15.75 16.25 12.9766 16.25 9.5C16.25 6.0625 13.4375 3.28906 10 3.28906C8.51562 3.28906 7.14844 3.79688 6.01562 4.69531L7.8125 6.45312C8.47656 7.11719 7.96875 8.28906 7.03125 8.28906H1.36719C0.9375 8.28906 0.625 7.9375 0.625 7.50781V1.84375C0.625 0.867188 1.75781 0.398438 2.42188 1.0625L4.25781 2.9375C5.82031 1.57031 7.85156 0.789062 10 0.789062C14.8047 0.789062 18.75 4.69531 18.75 9.5Z" fill="#1C1C1C"/>
</svg>
