<svg width="25" height="21" viewBox="0 0 25 21" fill="none" xmlns="http://www.w3.org/2000/svg">
<path d="M14.375 0.5C15.3906 0.5 16.25 1.35938 16.25 2.375V4.25H18.2031C18.8672 4.25 19.4922 4.52344 20 4.99219L23.0078 8C23.4766 8.46875 23.75 9.13281 23.75 9.79688V14.25C24.4141 14.25 25 14.8359 25 15.5C25 16.2031 24.4141 16.75 23.75 16.75H22.5C22.5 18.8203 20.8203 20.5 18.75 20.5C16.6406 20.5 15 18.8203 15 16.75H10C10 18.8203 8.32031 20.5 6.25 20.5C4.14062 20.5 2.5 18.8203 2.5 16.75H1.875C0.820312 16.75 0 15.9297 0 14.875V2.375C0 1.35938 0.820312 0.5 1.875 0.5H14.375ZM16.25 6.75V10.5H21.25V9.79688L18.2031 6.75H16.25ZM6.25 14.875C5.19531 14.875 4.375 15.7344 4.375 16.75C4.375 17.8047 5.19531 18.625 6.25 18.625C7.26562 18.625 8.125 17.8047 8.125 16.75C8.125 15.7344 7.26562 14.875 6.25 14.875ZM18.75 18.625C19.7656 18.625 20.625 17.8047 20.625 16.75C20.625 15.7344 19.7656 14.875 18.75 14.875C17.6953 14.875 16.875 15.7344 16.875 16.75C16.875 17.8047 17.6953 18.625 18.75 18.625Z" fill="#1C1C1C"/>
</svg>
